<svg width="40" height="40" viewBox="0 0 40 40" fill="none" xmlns="http://www.w3.org/2000/svg">
<path d="M16.1917 20C18.11 20 19.525 18.585 19.525 16.6667C19.525 14.7483 18.11 13.3333 16.1917 13.3333C14.2733 13.3333 12.8583 14.7483 12.8583 16.6667C12.8583 18.585 14.2717 20 16.1917 20Z" fill="#313F4F"/>
<path d="M33.3333 6.66667H6.66667C4.82833 6.66667 3.33333 8.06833 3.33333 9.79167V30.2083C3.33333 31.9317 4.82833 33.3333 6.66667 33.3333H33.3333C35.1717 33.3333 36.6667 31.9317 36.6667 30.2083V9.79167C36.6667 8.06833 35.1717 6.66667 33.3333 6.66667ZM33.3333 30L6.66667 29.9817V10L33.3333 10.0183V30Z" fill="#313F4F"/>
<path d="M23.3333 15H30V18.3333H23.3333V15ZM25 21.6667H30V25H25V21.6667ZM22.3833 25.8933C22.3833 23.6033 19.59 21.25 16.1917 21.25C12.7933 21.25 10 23.6033 10 25.8933V26.6667H22.3833V25.8933Z" fill="#313F4F"/>
</svg>
