<svg width="40" height="40" viewBox="0 0 40 40" fill="none" xmlns="http://www.w3.org/2000/svg">
<path d="M9.16667 25C10.6252 24.9917 12.028 24.4389 13.1 23.45L23.5333 29.4167C23.4004 29.8771 23.3331 30.3541 23.3333 30.8333C23.3226 32.1859 23.7783 33.5009 24.6236 34.5568C25.469 35.6127 26.6523 36.3451 27.9745 36.6306C29.2966 36.9162 30.6767 36.7375 31.8825 36.1245C33.0883 35.5116 34.046 34.5019 34.5945 33.2655C35.1429 32.029 35.2486 30.6414 34.8937 29.3362C34.5388 28.031 33.7449 26.8879 32.6459 26.0994C31.5468 25.311 30.2097 24.9254 28.8595 25.0074C27.5094 25.0895 26.2288 25.6342 25.2333 26.55L14.8 20.5833C14.9259 20.1726 14.9932 19.7462 15 19.3167L25.25 13.45C26.2401 14.3447 27.5077 14.8718 28.8403 14.9428C30.1729 15.0139 31.4894 14.6245 32.569 13.8401C33.6486 13.0557 34.4256 11.9239 34.7698 10.6345C35.114 9.34519 35.0043 7.97672 34.4593 6.75863C33.9142 5.54054 32.9669 4.5469 31.7762 3.94438C30.5854 3.34186 29.2238 3.16708 27.9195 3.44938C26.6152 3.73167 25.4476 4.45386 24.6126 5.49482C23.7776 6.53578 23.3259 7.8322 23.3333 9.16667C23.339 9.64551 23.4062 10.1216 23.5333 10.5833L14.05 16C13.5005 15.1499 12.7393 14.4575 11.8411 13.9907C10.943 13.5239 9.93884 13.2988 8.92738 13.3376C7.91592 13.3765 6.93196 13.6778 6.07222 14.212C5.21249 14.7463 4.50656 15.495 4.02382 16.3847C3.54109 17.2744 3.29817 18.2744 3.31893 19.2863C3.3397 20.2983 3.62343 21.2875 4.14225 22.1566C4.66107 23.0258 5.39712 23.7449 6.27805 24.2435C7.15898 24.742 8.15447 25.0027 9.16667 25ZM29.1667 28.3333C29.6611 28.3333 30.1445 28.48 30.5556 28.7547C30.9667 29.0294 31.2871 29.4198 31.4764 29.8766C31.6656 30.3334 31.7151 30.8361 31.6186 31.3211C31.5222 31.806 31.2841 32.2515 30.9344 32.6011C30.5848 32.9507 30.1393 33.1888 29.6544 33.2853C29.1694 33.3818 28.6668 33.3322 28.21 33.143C27.7531 32.9538 27.3627 32.6334 27.088 32.2223C26.8133 31.8111 26.6667 31.3278 26.6667 30.8333C26.6667 30.1703 26.9301 29.5344 27.3989 29.0656C27.8677 28.5967 28.5036 28.3333 29.1667 28.3333ZM29.1667 6.66667C29.6611 6.66667 30.1445 6.81329 30.5556 7.08799C30.9667 7.3627 31.2871 7.75314 31.4764 8.20996C31.6656 8.66677 31.7151 9.16944 31.6186 9.65439C31.5222 10.1393 31.2841 10.5848 30.9344 10.9344C30.5848 11.2841 30.1393 11.5222 29.6544 11.6186C29.1694 11.7151 28.6668 11.6656 28.21 11.4764C27.7531 11.2871 27.3627 10.9667 27.088 10.5556C26.8133 10.1445 26.6667 9.66112 26.6667 9.16667C26.6667 8.50363 26.9301 7.86774 27.3989 7.3989C27.8677 6.93006 28.5036 6.66667 29.1667 6.66667ZM9.16667 16.6667C9.66112 16.6667 10.1445 16.8133 10.5556 17.088C10.9667 17.3627 11.2871 17.7531 11.4764 18.21C11.6656 18.6668 11.7151 19.1694 11.6186 19.6544C11.5222 20.1393 11.2841 20.5848 10.9344 20.9344C10.5848 21.2841 10.1393 21.5222 9.6544 21.6186C9.16944 21.7151 8.66678 21.6656 8.20996 21.4764C7.75315 21.2871 7.3627 20.9667 7.088 20.5556C6.81329 20.1445 6.66667 19.6611 6.66667 19.1667C6.66667 18.5036 6.93006 17.8677 7.3989 17.3989C7.86774 16.9301 8.50363 16.6667 9.16667 16.6667Z" fill="#313F4F"/>
</svg>
