<svg width="40" height="40" viewBox="0 0 40 40" fill="none" xmlns="http://www.w3.org/2000/svg">
<path d="M33.3333 33.3333H6.66667C5.78261 33.3333 4.93477 32.9821 4.30964 32.357C3.68452 31.7319 3.33333 30.8841 3.33333 30V9.855C3.37072 8.99632 3.73835 8.18526 4.35946 7.59117C4.98058 6.99707 5.80717 6.66585 6.66667 6.66667H33.3333C34.2174 6.66667 35.0652 7.01785 35.6904 7.64298C36.3155 8.2681 36.6667 9.11594 36.6667 10V30C36.6667 30.8841 36.3155 31.7319 35.6904 32.357C35.0652 32.9821 34.2174 33.3333 33.3333 33.3333ZM6.66667 13.1133V30H33.3333V13.1133L20 22L6.66667 13.1133ZM8 10L20 18L32 10H8Z" fill="#313F4F"/>
</svg>
