<svg width="40" height="40" viewBox="0 0 40 40" fill="none" xmlns="http://www.w3.org/2000/svg">
<path d="M20 2.5C8.95312 2.5 0 9.77344 0 18.75C0 22.625 1.67188 26.1719 4.45312 28.9609C3.47656 32.8984 0.210938 36.4062 0.171875 36.4453C0 36.625 -0.046875 36.8906 0.0546875 37.125C0.15625 37.3594 0.375 37.5 0.625 37.5C5.80469 37.5 9.6875 35.0156 11.6094 33.4844C14.1641 34.4453 17 35 20 35C31.0469 35 40 27.7266 40 18.75C40 9.77344 31.0469 2.5 20 2.5ZM10.0156 23.75H9.0625C8.71875 23.75 8.4375 23.4688 8.4375 23.125V21.875C8.4375 21.5312 8.71875 21.25 9.0625 21.25H10.0234C10.4922 21.25 10.8359 20.9766 10.8359 20.7344C10.8359 20.6328 10.7734 20.5234 10.6719 20.4375L8.96094 18.9688C8.29688 18.4062 7.92188 17.6016 7.92188 16.7734C7.92188 15.1094 9.40625 13.7578 11.2344 13.7578H12.1875C12.5312 13.7578 12.8125 14.0391 12.8125 14.3828V15.6328C12.8125 15.9766 12.5312 16.2578 12.1875 16.2578H11.2266C10.7578 16.2578 10.4141 16.5312 10.4141 16.7734C10.4141 16.875 10.4766 16.9844 10.5781 17.0703L12.2891 18.5391C12.9531 19.1016 13.3281 19.9062 13.3281 20.7344C13.3359 22.3984 11.8438 23.75 10.0156 23.75ZM25 23.125C25 23.4688 24.7188 23.75 24.375 23.75H23.125C22.7812 23.75 22.5 23.4688 22.5 23.125V17.7969L20.5625 22.1562C20.3359 22.6172 19.6719 22.6172 19.4453 22.1562L17.5 17.7969V23.125C17.5 23.4688 17.2188 23.75 16.875 23.75H15.625C15.2812 23.75 15 23.4688 15 23.125V15C15 14.3125 15.5625 13.75 16.25 13.75H17.5C17.9766 13.75 18.4062 14.0156 18.6172 14.4375L20 17.2031L21.3828 14.4375C21.5938 14.0156 22.0312 13.75 22.5 13.75H23.75C24.4375 13.75 25 14.3125 25 15V23.125ZM28.7734 23.75H27.8125C27.4688 23.75 27.1875 23.4688 27.1875 23.125V21.875C27.1875 21.5312 27.4688 21.25 27.8125 21.25H28.7734C29.2422 21.25 29.5859 20.9766 29.5859 20.7344C29.5859 20.6328 29.5234 20.5234 29.4219 20.4375L27.7109 18.9688C27.0469 18.4062 26.6719 17.6016 26.6719 16.7734C26.6719 15.1094 28.1562 13.7578 29.9844 13.7578H30.9375C31.2812 13.7578 31.5625 14.0391 31.5625 14.3828V15.6328C31.5625 15.9766 31.2812 16.2578 30.9375 16.2578H29.9766C29.5078 16.2578 29.1641 16.5312 29.1641 16.7734C29.1641 16.875 29.2266 16.9844 29.3281 17.0703L31.0391 18.5391C31.7031 19.1016 32.0781 19.9062 32.0781 20.7344C32.0859 22.3984 30.6016 23.75 28.7734 23.75Z" fill="#313F4F"/>
</svg>
